<svg xmlns="http://www.w3.org/2000/svg" viewBox="0 0 36 45" x="0px" y="0px"><title>Монтажная область 30</title><path d="M28,19.99978H19.02618l2.87317-4H28a2,2,0,0,0,0-4H24.77246L27.875,7.68044a2.00022,2.00022,0,0,0-3.249-2.334l-4.779,6.65332H8a2,2,0,0,0,0,4h8.97382l-2.87317,4H8a2,2,0,0,0,0,4h3.22754L8.125,28.31911a2.00023,2.00023,0,0,0,3.249,2.334l4.779-6.65332H28a2,2,0,0,0,0-4Z"/><text x="0" y="51" fill="#000000" font-size="5px" font-weight="bold" font-family="'Helvetica Neue', Helvetica, Arial-Unicode, Arial, Sans-serif">Created by Chintuza</text><text x="0" y="56" fill="#000000" font-size="5px" font-weight="bold" font-family="'Helvetica Neue', Helvetica, Arial-Unicode, Arial, Sans-serif">from the Noun Project</text></svg>